<mxfile host="65bd71144e">
    <diagram id="C1iupWK6Gov-rLDpbjSz" name="basic">
        <mxGraphModel dx="504" dy="359" grid="1" gridSize="10" guides="1" tooltips="1" connect="1" arrows="1" fold="1" page="1" pageScale="1" pageWidth="827" pageHeight="1169" math="0" shadow="0">
            <root>
                <mxCell id="0"/>
                <mxCell id="1" parent="0"/>
                <mxCell id="2" value="" style="rounded=0;whiteSpace=wrap;html=1;fillColor=#003333;" parent="1" vertex="1">
                    <mxGeometry x="40" y="40" width="260" height="240" as="geometry"/>
                </mxCell>
                <mxCell id="4" value="fetch data" style="rounded=1;whiteSpace=wrap;html=1;fillColor=#663300;" parent="1" vertex="1">
                    <mxGeometry x="110" y="80" width="120" height="60" as="geometry"/>
                </mxCell>
                <mxCell id="5" value="render data" style="rounded=1;whiteSpace=wrap;html=1;fillColor=#666600;" parent="1" vertex="1">
                    <mxGeometry x="110" y="180" width="120" height="60" as="geometry"/>
                </mxCell>
            </root>
        </mxGraphModel>
    </diagram>
    <diagram id="K8BI0-scaHJFjqOG6393" name="solution">
        <mxGraphModel dx="897" dy="639" grid="1" gridSize="10" guides="1" tooltips="1" connect="1" arrows="1" fold="1" page="1" pageScale="1" pageWidth="827" pageHeight="1169" math="0" shadow="0">
            <root>
                <mxCell id="0"/>
                <mxCell id="1" parent="0"/>
                <mxCell id="pMk06L9ncbRQNNvAu-wl-2" value="" style="rounded=0;whiteSpace=wrap;html=1;fillColor=#003333;" parent="1" vertex="1">
                    <mxGeometry x="60" y="180" width="320" height="330" as="geometry"/>
                </mxCell>
                <mxCell id="-VyyuY_npe7rC534FOWl-21" style="edgeStyle=none;html=1;entryX=0.5;entryY=1;entryDx=0;entryDy=0;" parent="1" source="pMk06L9ncbRQNNvAu-wl-1" target="-VyyuY_npe7rC534FOWl-2" edge="1">
                    <mxGeometry relative="1" as="geometry"/>
                </mxCell>
                <mxCell id="pMk06L9ncbRQNNvAu-wl-1" value="todolist" style="rounded=0;whiteSpace=wrap;html=1;fillColor=#660000;" parent="1" vertex="1">
                    <mxGeometry x="70" y="570" width="120" height="80" as="geometry"/>
                </mxCell>
                <mxCell id="-VyyuY_npe7rC534FOWl-5" style="edgeStyle=none;html=1;entryX=0;entryY=0.5;entryDx=0;entryDy=0;" parent="1" source="-VyyuY_npe7rC534FOWl-1" target="-VyyuY_npe7rC534FOWl-4" edge="1">
                    <mxGeometry relative="1" as="geometry"/>
                </mxCell>
                <mxCell id="-VyyuY_npe7rC534FOWl-1" value="fetch data" style="rounded=1;whiteSpace=wrap;html=1;fillColor=#663300;" parent="1" vertex="1">
                    <mxGeometry x="90" y="280" width="120" height="60" as="geometry"/>
                </mxCell>
                <mxCell id="-VyyuY_npe7rC534FOWl-2" value="todolist" style="rounded=1;whiteSpace=wrap;html=1;fillColor=#000066;strokeColor=#006666;" parent="1" vertex="1">
                    <mxGeometry x="90" y="400" width="270" height="60" as="geometry"/>
                </mxCell>
                <mxCell id="-VyyuY_npe7rC534FOWl-6" style="edgeStyle=none;html=1;entryX=0.75;entryY=0;entryDx=0;entryDy=0;" parent="1" source="-VyyuY_npe7rC534FOWl-4" target="-VyyuY_npe7rC534FOWl-2" edge="1">
                    <mxGeometry relative="1" as="geometry"/>
                </mxCell>
                <mxCell id="-VyyuY_npe7rC534FOWl-4" value="todos" style="ellipse;whiteSpace=wrap;html=1;fillColor=#660066;" parent="1" vertex="1">
                    <mxGeometry x="240" y="200" width="120" height="80" as="geometry"/>
                </mxCell>
                <mxCell id="-VyyuY_npe7rC534FOWl-8" value="" style="rounded=0;whiteSpace=wrap;html=1;strokeColor=#006666;fillColor=#660033;" parent="1" vertex="1">
                    <mxGeometry x="520" y="40" width="220" height="165" as="geometry"/>
                </mxCell>
                <mxCell id="-VyyuY_npe7rC534FOWl-9" value="App" style="text;html=1;strokeColor=none;fillColor=none;align=center;verticalAlign=middle;whiteSpace=wrap;rounded=0;" parent="1" vertex="1">
                    <mxGeometry x="600" y="50" width="60" height="30" as="geometry"/>
                </mxCell>
                <mxCell id="-VyyuY_npe7rC534FOWl-10" value="withTodos" style="text;html=1;strokeColor=none;fillColor=none;align=center;verticalAlign=middle;whiteSpace=wrap;rounded=0;" parent="1" vertex="1">
                    <mxGeometry x="90" y="200" width="60" height="30" as="geometry"/>
                </mxCell>
                <mxCell id="-VyyuY_npe7rC534FOWl-16" style="edgeStyle=none;html=1;entryX=1;entryY=0;entryDx=0;entryDy=0;" parent="1" source="-VyyuY_npe7rC534FOWl-12" target="pMk06L9ncbRQNNvAu-wl-2" edge="1">
                    <mxGeometry relative="1" as="geometry">
                        <mxPoint x="380" y="170" as="targetPoint"/>
                    </mxGeometry>
                </mxCell>
                <mxCell id="-VyyuY_npe7rC534FOWl-12" value="todolist" style="rounded=0;whiteSpace=wrap;html=1;fillColor=#660000;" parent="1" vertex="1">
                    <mxGeometry x="570" y="95" width="120" height="80" as="geometry"/>
                </mxCell>
                <mxCell id="-VyyuY_npe7rC534FOWl-18" style="edgeStyle=none;html=1;entryX=0.5;entryY=1;entryDx=0;entryDy=0;exitX=1;exitY=0.25;exitDx=0;exitDy=0;" parent="1" source="-VyyuY_npe7rC534FOWl-2" target="-VyyuY_npe7rC534FOWl-8" edge="1">
                    <mxGeometry relative="1" as="geometry"/>
                </mxCell>
            </root>
        </mxGraphModel>
    </diagram>
</mxfile>